<svg viewBox="0 0 16 16" width="16px" height="16px" xmlns="http://www.w3.org/2000/svg">
  <g id="surface1">
    <path style="fill:none;stroke-width:3;stroke-linecap:butt;stroke-linejoin:round;stroke:rgb(0%,0%,0%);stroke-opacity:1;stroke-miterlimit:4;" d="M 16 32 L 16 13 L 13 10 " transform="matrix(0.5,0,0,0.5,0,0)"/>
    <path style="fill:none;stroke-width:3;stroke-linecap:butt;stroke-linejoin:round;stroke:rgb(0%,0%,0%);stroke-opacity:1;stroke-miterlimit:4;" d="M 16 20 L 22 16 " transform="matrix(0.5,0,0,0.5,0,0)"/>
    <path style="fill:none;stroke-width:3;stroke-linecap:butt;stroke-linejoin:round;stroke:rgb(0%,0%,0%);stroke-opacity:1;stroke-miterlimit:4;" d="M 16 23 L 10 19 " transform="matrix(0.5,0,0,0.5,0,0)"/>
    <path style="fill:none;stroke-width:3;stroke-linecap:butt;stroke-linejoin:round;stroke:rgb(0%,0%,0%);stroke-opacity:1;stroke-miterlimit:4;" d="M 16 13 L 19 10 " transform="matrix(0.5,0,0,0.5,0,0)"/>
    <path style="fill:none;stroke-width:3;stroke-linecap:butt;stroke-linejoin:round;stroke:rgb(0%,0%,0%);stroke-opacity:1;stroke-miterlimit:4;" d="M 28 27 L 4 27 L 5 14 L 6 10 L 10 6 L 15 2 L 17 2 L 22 6 L 26 10 L 27 14 Z M 28 27 " transform="matrix(0.5,0,0,0.5,0,0)"/>
  </g>
</svg>
